<svg 
 xmlns="http://www.w3.org/2000/svg"
 xmlns:xlink="http://www.w3.org/1999/xlink"
 width="17px" height="17px">
<path fill-rule="evenodd"
 d="M12.397,0.707 C10.974,0.707 9.552,1.420 8.631,2.577 C7.711,1.420 6.288,0.707 4.866,0.707 C2.271,0.707 0.263,2.844 0.263,5.604 C0.263,8.986 3.108,11.747 7.460,15.842 L8.631,16.999 L9.803,15.842 C14.071,11.658 17.000,8.898 17.000,5.604 C17.000,2.844 14.991,0.707 12.397,0.707 ZM8.715,14.595 L8.631,14.595 L8.548,14.506 C4.531,10.678 1.937,8.185 1.937,5.604 C1.937,3.823 3.192,2.488 4.866,2.488 C6.121,2.488 7.376,3.378 7.878,4.624 L9.468,4.624 C9.887,3.378 11.142,2.488 12.397,2.488 C14.071,2.488 15.326,3.823 15.326,5.604 C15.326,8.185 12.732,10.678 8.715,14.595 Z"/>
</svg>