<svg aria-hidden="true" style="position: absolute; width: 0; height: 0; overflow: hidden;" version="1.1" xmlns="http://www.w3.org/2000/svg" xmlns:xlink="http://www.w3.org/1999/xlink">
<defs>
<symbol id="icon-remove" viewBox="0 0 32 32">
<title>remove</title>
<path d="M31.985 4.803l-11.215 11.212 11.197 11.197-4.756 4.759-11.197-11.2-11.212 11.215-4.788-4.788 11.212-11.212-11.197-11.2 4.756-4.756 11.197 11.197 11.215-11.212 4.788 4.788z"></path>
</symbol>
<symbol id="icon-close" viewBox="0 0 32 32">
<title>close</title>
<path d="M32 1.853l-1.856-1.855-14.144 14.145-14.145-14.145-1.855 1.855 14.144 14.145-14.144 14.145 1.855 1.855 14.145-14.145 14.144 14.145 1.856-1.855-14.147-14.145 14.147-14.145z"></path>
</symbol>
<symbol id="icon-search" viewBox="0 0 32 32">
<title>search</title>
<path d="M31.5 29.146l-7.886-7.922c2.028-2.328 3.138-5.256 3.138-8.306 0-7.124-6-12.92-13.378-12.92-7.376 0-13.378 5.796-13.378 12.92s6.002 12.92 13.378 12.92c2.77 0 5.41-0.806 7.666-2.338l7.946 7.982c0.332 0.332 0.778 0.516 1.256 0.516 0.454 0 0.884-0.166 1.21-0.47 0.694-0.644 0.716-1.712 0.048-2.382zM13.374 3.37c5.454 0 9.888 4.282 9.888 9.548s-4.434 9.55-9.888 9.55c-5.452 0-9.888-4.284-9.888-9.55s4.436-9.548 9.888-9.548z"></path>
</symbol>
<symbol id="icon-bookmark" viewBox="0 0 24 32">
<title>bookmark</title>
<path d="M20.252-0.002h-16.877c-1.856 0-3.375 1.534-3.375 3.407v27.26l11.814-5.112 11.814 5.112v-27.26c0-1.873-1.519-3.407-3.375-3.407zM20.252 25.553l-8.439-3.748-8.439 3.748v-22.148h16.877v22.148z"></path>
</symbol>
<symbol id="icon-dots" viewBox="0 0 160 32">
<title>dots</title>
<path d="M142.165 32c-9.845 0-17.835-7.168-17.835-16s7.989-16 17.835-16c9.845 0 17.835 7.168 17.835 16s-7.989 16-17.835 16zM80 32c-9.76 0-17.664-7.168-17.664-16s7.904-16 17.664-16c9.76 0 17.664 7.168 17.664 16s-7.904 16-17.664 16zM17.835 32c-9.856 0-17.835-7.168-17.835-16s7.979-16 17.835-16c9.845 0 17.835 7.168 17.835 16s-7.989 16-17.835 16z"></path>
</symbol>
<symbol id="icon-heart" viewBox="0 0 32 32">
<title>heart</title>
<path d="M23.336 1.331c-2.679 0-5.355 1.342-7.089 3.52-1.732-2.178-4.41-3.52-7.087-3.52-4.885 0-8.664 4.023-8.664 9.218 0 6.366 5.355 11.563 13.547 19.272l2.204 2.178 2.206-2.178c8.034-7.876 13.547-13.071 13.547-19.272 0-5.195-3.782-9.218-8.664-9.218zM16.405 27.473h-0.158l-0.156-0.168c-7.561-7.206-12.444-11.898-12.444-16.757 0-3.352 2.362-5.865 5.513-5.865 2.362 0 4.725 1.675 5.67 4.021h2.993c0.789-2.345 3.151-4.021 5.513-4.021 3.151 0 5.513 2.513 5.513 5.865 0 4.858-4.883 9.551-12.444 16.924z"></path>
</symbol>
<symbol id="icon-grid" viewBox="0 0 31 32">
<title>grid</title>
<path d="M29.491 30.657h-6.015c-0.616 0-1.203-0.55-1.203-1.171v-6.083c0-0.623 0.505-1.128 1.128-1.128h6.077c0.623 0 1.127 0.506 1.127 1.128v6.083c0 0.622-0.498 1.171-1.114 1.171zM29.491 19.527h-6.015c-0.616 0-1.203-0.55-1.203-1.171v-6.083c0-0.623 0.505-1.128 1.128-1.128h6.077c0.623 0 1.127 0.506 1.127 1.128v6.083c0 0.622-0.498 1.171-1.114 1.171zM29.491 8.397h-6.015c-0.616 0-1.203-0.55-1.203-1.171v-6.083c0-0.623 0.505-1.128 1.128-1.128h6.077c0.623 0 1.127 0.506 1.127 1.128v6.083c0 0.622-0.498 1.171-1.114 1.171zM18.355 30.614h-6.079c-0.621 0-1.127-0.506-1.127-1.128v-6.083c0-0.623 0.506-1.128 1.127-1.128h6.079c0.623 0 1.128 0.505 1.128 1.128v6.083c0 0.622-0.505 1.128-1.128 1.128zM18.355 19.484h-6.079c-0.621 0-1.127-0.506-1.127-1.128v-6.083c0-0.623 0.506-1.128 1.127-1.128h6.079c0.623 0 1.128 0.505 1.128 1.128v6.083c0 0.622-0.505 1.128-1.128 1.128zM18.355 8.352h-6.079c-0.621 0-1.127-0.505-1.127-1.127v-6.083c0-0.623 0.506-1.128 1.127-1.128h6.079c0.623 0 1.128 0.505 1.128 1.128v6.083c0 0.622-0.505 1.127-1.128 1.127zM7.133 30.657h-6.015c-0.618 0-1.117-0.509-1.117-1.134v-6.113c0-0.627 0.499-1.135 1.117-1.135h6.015c0.615 0 1.114 0.508 1.114 1.135v6.113c0 0.625-0.499 1.134-1.114 1.134zM7.133 19.527h-6.015c-0.618 0-1.117-0.509-1.117-1.134v-6.113c0-0.627 0.499-1.135 1.117-1.135h6.015c0.615 0 1.114 0.508 1.114 1.135v6.113c0 0.625-0.499 1.134-1.114 1.134zM7.133 8.397h-6.015c-0.618 0-1.117-0.509-1.117-1.134v-6.113c0-0.627 0.499-1.135 1.117-1.135h6.015c0.615 0 1.114 0.508 1.114 1.135v6.113c0 0.625-0.499 1.134-1.114 1.134z"></path>
</symbol>
<symbol id="icon-list" viewBox="0 0 32 32">
<title>list</title>
<path d="M28.952 22.857h-18.286c-2.018 0-3.067-1.015-3.067-2.27 0-1.257 1.050-2.301 3.067-2.301h18.286c2.494 0 3.048 1.044 3.048 2.301 0 1.256-0.363 2.27-3.048 2.27zM28.952 13.714h-18.286c-2.018 0-3.067-1.015-3.067-2.27 0-1.257 1.050-2.302 3.067-2.302h18.286c2.494 0 3.048 1.045 3.048 2.302 0 1.256-0.363 2.27-3.048 2.27zM28.952 4.57h-18.286c-2.018 0-3.067-1.015-3.067-2.269 0-1.256 1.050-2.302 3.067-2.302h18.286c2.494 0 3.048 1.047 3.048 2.302 0 1.254-0.363 2.269-3.048 2.269zM2.286 32.021c-1.263 0-2.287-1.029-2.287-2.298s1.024-2.299 2.287-2.299c1.263 0 2.289 1.030 2.289 2.299s-1.026 2.298-2.289 2.298zM2.286 22.88c-1.263 0-2.287-1.030-2.287-2.299s1.024-2.299 2.287-2.299c1.263 0 2.289 1.030 2.289 2.299s-1.026 2.299-2.289 2.299zM2.286 13.737c-1.263 0-2.287-1.030-2.287-2.299s1.024-2.299 2.287-2.299c1.263 0 2.289 1.030 2.289 2.299s-1.026 2.299-2.289 2.299zM2.286 4.594c-1.263 0-2.287-1.030-2.287-2.299 0-1.271 1.024-2.299 2.287-2.299s2.289 1.029 2.289 2.299c0 1.269-1.026 2.299-2.289 2.299zM10.667 27.429h18.286c2.494 0 3.048 1.045 3.048 2.301s-0.363 2.27-3.048 2.27h-18.286c-2.018 0-3.067-1.015-3.067-2.27s1.050-2.301 3.067-2.301z"></path>
</symbol>
</defs>
</svg>
