<svg xmlns="http://www.w3.org/2000/svg" xmlns:xlink="http://www.w3.org/1999/xlink" width="22" height="22" viewBox="0 0 22 22"><defs><path id="ikhha" d="M1476.928 801.22a.809.809 0 0 1-.801.815h-4.323a.809.809 0 0 1-.803-.814v-4.395c0-.45.36-.815.803-.815h4.323c.442 0 .801.364.801.815zm8.076-.026a.81.81 0 0 1-.81.81h-4.37a.811.811 0 0 1-.81-.81v-4.372a.81.81 0 0 1 .81-.811h4.37a.81.81 0 0 1 .81.81zm7.994-4.372v4.372c0 .446-.358.841-.801.841h-4.323c-.443 0-.865-.395-.865-.841v-4.372a.81.81 0 0 1 .81-.811h4.37a.81.81 0 0 1 .81.81zm-16.07 12.399a.809.809 0 0 1-.801.814h-4.323a.809.809 0 0 1-.803-.814v-4.395c0-.45.36-.815.803-.815h4.323c.442 0 .801.364.801.815zm8.076-.027a.81.81 0 0 1-.81.81h-4.37a.811.811 0 0 1-.81-.81v-4.372a.81.81 0 0 1 .81-.811h4.37a.81.81 0 0 1 .81.81zm7.994-4.372v4.372c0 .446-.358.841-.801.841h-4.323c-.443 0-.865-.395-.865-.841v-4.372a.81.81 0 0 1 .81-.811h4.37a.81.81 0 0 1 .81.81zm-16.07 12.399a.809.809 0 0 1-.801.814h-4.323a.809.809 0 0 1-.803-.814v-4.395c0-.45.36-.815.803-.815h4.323c.442 0 .801.364.801.815zm8.076-.027a.81.81 0 0 1-.81.81h-4.37a.811.811 0 0 1-.81-.81v-4.372a.81.81 0 0 1 .81-.811h4.37a.81.81 0 0 1 .81.81zm7.994-4.372v4.372c0 .446-.358.841-.801.841h-4.323c-.443 0-.865-.395-.865-.841v-4.372a.81.81 0 0 1 .81-.811h4.37a.81.81 0 0 1 .81.81z"/></defs><g><g transform="translate(-1471 -796)"><use fill="#8d9a9d" xlink:href="#ikhha"/></g></g></svg>