<svg xmlns="http://www.w3.org/2000/svg" xmlns:xlink="http://www.w3.org/1999/xlink" width="15" height="14" viewBox="0 0 15 14"><defs><path id="9cnja" d="M1449.943 3011.32v6.095c0 1.976-1.706 3.584-3.803 3.584h-6.47c-2.097 0-3.803-1.608-3.803-3.584v-6.096c0-1.976 1.706-3.584 3.803-3.584h6.47c2.097 0 3.803 1.608 3.803 3.584zm-1.564.1c0-1.385-.876-2.21-2.346-2.21h-6.256c-1.47 0-2.346.825-2.346 2.21v5.895c0 1.385.876 2.21 2.346 2.21h6.256c1.47 0 2.346-.825 2.346-2.21zm-2.91 4.692a3.176 3.176 0 0 1-2.073 1.17 3.258 3.258 0 0 1-2.343-.553 2.93 2.93 0 0 1-1.242-1.952 2.827 2.827 0 0 1 .587-2.208 3.172 3.172 0 0 1 2.072-1.17c.307-.043.619-.043.926 0a3.207 3.207 0 0 1 1.769.838c.482.455.79 1.031.89 1.667a2.826 2.826 0 0 1-.587 2.208zm-.539-2.05c-.131-.835-.815-1.48-1.7-1.604a2.171 2.171 0 0 0-.593 0 2.03 2.03 0 0 0-1.326.75c-.321.407-.454.909-.375 1.411.079.504.361.947.794 1.25a2.1 2.1 0 0 0 1.5.354c1.1-.154 1.864-1.124 1.7-2.162zm2.102-3.048c0 .141-.06.279-.167.379a.588.588 0 0 1-.402.157.587.587 0 0 1-.402-.157.524.524 0 0 1-.167-.379c0-.14.061-.28.167-.379a.593.593 0 0 1 .804 0c.106.1.167.238.167.379z"/></defs><g><g transform="translate(-1435 -3007)"><use fill="#fff" xlink:href="#9cnja"/></g></g></svg>