<svg xmlns="http://www.w3.org/2000/svg" xmlns:xlink="http://www.w3.org/1999/xlink" width="17" height="14" viewBox="0 0 17 14"><defs><path id="tjvma" d="M797 4133.524v8.918a.556.556 0 0 1-.554.558h-15.892a.556.556 0 0 1-.554-.558v-8.918a.56.56 0 0 1 .308-.499l7.945-3.967a.55.55 0 0 1 .493 0l7.946 3.967a.56.56 0 0 1 .308.5zm-15.2 0c.3.15 6.41 3.2 6.7 3.346l6.7-3.346-6.7-3.345zm14.091.9l-4.926 2.46 3.596 2.482a.56.56 0 0 1 .143.775.552.552 0 0 1-.77.144l-4.106-2.834-1.081.54a.55.55 0 0 1-.494 0l-1.082-.54-4.104 2.834a.553.553 0 0 1-.771-.144.56.56 0 0 1 .143-.775l3.596-2.482-4.926-2.46v7.461h14.782z"/></defs><g><g transform="translate(-780 -4129)"><use fill="#0176fe" xlink:href="#tjvma"/></g></g></svg>