<svg xmlns="http://www.w3.org/2000/svg" xmlns:xlink="http://www.w3.org/1999/xlink" width="13" height="13" viewBox="0 0 13 13"><defs><path id="6mqja" d="M1391.86 2969.859c-.483-.915-2.164-1.907-2.238-1.95a1.336 1.336 0 0 0-.653-.189.812.812 0 0 0-.726.406c-.246.293-.55.637-.625.69-.572.389-1.02.345-1.517-.151l-2.77-2.769c-.492-.493-.537-.947-.151-1.516.054-.074.397-.38.692-.626a.8.8 0 0 0 .372-.48c.075-.271.02-.59-.157-.9-.042-.071-1.035-1.752-1.95-2.236a1.194 1.194 0 0 0-1.396.21l-.612.612c-.968.967-1.318 2.063-1.042 3.258.23.996.902 2.056 1.997 3.15l3.545 3.544c1.385 1.385 2.706 2.088 3.925 2.088.897 0 1.733-.382 2.485-1.133l.611-.611c.372-.372.456-.933.21-1.397z"/></defs><g><g transform="translate(-1379 -2960)"><use fill="#fff" xlink:href="#6mqja"/></g></g></svg>