<svg xmlns="http://www.w3.org/2000/svg" xmlns:xlink="http://www.w3.org/1999/xlink" width="21" height="21" viewBox="0 0 21 21"><defs><path id="4meua" d="M1537 800h-12c-1.324 0-2.013-.666-2.013-1.49s.689-1.51 2.013-1.51h12c1.637 0 2 .686 2 1.51s-.238 1.49-2 1.49zm-17.5-3.002c.83 0 1.502.675 1.502 1.508s-.673 1.509-1.502 1.509a1.505 1.505 0 0 1-1.5-1.509c0-.833.671-1.508 1.5-1.508zM1537 806h-12c-1.324 0-2.013-.666-2.013-1.49s.689-1.51 2.013-1.51h12c1.637 0 2 .686 2 1.51s-.238 1.49-2 1.49zm-17.5-3.002c.83 0 1.502.675 1.502 1.508s-.673 1.509-1.502 1.509a1.505 1.505 0 0 1-1.5-1.509c0-.833.671-1.508 1.5-1.508zM1537 812h-12c-1.324 0-2.013-.666-2.013-1.49s.689-1.51 2.013-1.51h12c1.637 0 2 .686 2 1.51s-.238 1.49-2 1.49zm-17.5-3.002c.83 0 1.502.675 1.502 1.508s-.673 1.509-1.502 1.509a1.505 1.505 0 0 1-1.5-1.509c0-.833.671-1.508 1.5-1.508zM1537 818h-12c-1.324 0-2.013-.666-2.013-1.49s.689-1.51 2.013-1.51h12c1.637 0 2 .686 2 1.51s-.238 1.49-2 1.49zm-17.5-3.002c.83 0 1.502.675 1.502 1.508s-.673 1.509-1.502 1.509a1.505 1.505 0 0 1-1.5-1.509c0-.833.671-1.508 1.5-1.508z"/></defs><g><g transform="translate(-1518 -797)"><use fill="#fff" xlink:href="#4meua"/></g></g></svg>