<svg xmlns="http://www.w3.org/2000/svg" xmlns:xlink="http://www.w3.org/1999/xlink" width="14" height="11" viewBox="0 0 14 11"><defs><path id="ml1ia" d="M1544.613 3010.199a5.894 5.894 0 0 1-1.826.675 2.908 2.908 0 0 0-2.098-.879c-1.588 0-2.875 1.247-2.875 2.782 0 .218.025.43.074.634a8.256 8.256 0 0 1-5.925-2.907c-.248.41-.389.888-.389 1.398 0 .966.508 1.817 1.279 2.316a2.94 2.94 0 0 1-1.302-.35v.035c0 1.348.99 2.472 2.305 2.729a2.987 2.987 0 0 1-1.298.047c.366 1.105 1.427 1.91 2.685 1.933a5.894 5.894 0 0 1-3.57 1.19c-.233 0-.462-.013-.687-.038a8.342 8.342 0 0 0 4.407 1.25c5.288 0 8.18-4.24 8.18-7.916l-.01-.36a5.689 5.689 0 0 0 1.437-1.439 5.912 5.912 0 0 1-1.65.438 2.815 2.815 0 0 0 1.263-1.538z"/></defs><g><g transform="translate(-1531 -3010)"><use fill="#fff" xlink:href="#ml1ia"/></g></g></svg>