<svg xmlns="http://www.w3.org/2000/svg" xmlns:xlink="http://www.w3.org/1999/xlink" width="14" height="8" viewBox="0 0 14 8"><defs><path id="utaea" d="M1391.938 3020.23a.897.897 0 0 0-.047-.09c-.244-.44-.708-.979-1.394-1.618l-.014-.015-.008-.006-.007-.008h-.007a8.51 8.51 0 0 1-.591-.6c-.151-.195-.185-.393-.102-.593.058-.15.277-.47.656-.958.2-.259.358-.465.474-.622.842-1.121 1.207-1.838 1.095-2.15l-.044-.073c-.029-.044-.104-.084-.226-.12a1.154 1.154 0 0 0-.467-.02l-2.1.015a.273.273 0 0 0-.147.004l-.095.022-.036.018-.03.022a.33.33 0 0 0-.08.077.506.506 0 0 0-.072.128 11.95 11.95 0 0 1-.78 1.646c-.18.302-.346.565-.497.787-.151.221-.277.385-.38.49a2.685 2.685 0 0 1-.277.252c-.082.064-.146.09-.19.08l-.123-.029a.49.49 0 0 1-.164-.179.807.807 0 0 1-.084-.286 3.128 3.128 0 0 1-.026-.295c-.002-.083-.001-.2.004-.352.005-.151.007-.253.007-.307 0-.185.004-.386.01-.603.008-.218.014-.39.02-.516.004-.127.006-.261.006-.403a1.69 1.69 0 0 0-.025-.332 1.142 1.142 0 0 0-.076-.235.395.395 0 0 0-.15-.175.838.838 0 0 0-.244-.099 4.847 4.847 0 0 0-.985-.095c-.905-.01-1.486.049-1.744.175a.991.991 0 0 0-.277.22c-.088.107-.1.166-.037.175.292.044.499.15.62.315l.044.088a1.4 1.4 0 0 1 .102.336c.034.162.056.34.066.534.024.356.024.661 0 .915s-.047.45-.07.592a1.187 1.187 0 0 1-.185.505.124.124 0 0 1-.037.036.537.537 0 0 1-.197.037c-.068 0-.15-.034-.248-.102a1.743 1.743 0 0 1-.303-.282 3.733 3.733 0 0 1-.353-.5 8.76 8.76 0 0 1-.409-.762l-.117-.212a17.746 17.746 0 0 1-.299-.596c-.126-.261-.238-.514-.335-.757a.48.48 0 0 0-.175-.234l-.037-.023a.767.767 0 0 0-.284-.11l-2 .015c-.204 0-.342.047-.415.14l-.03.044a.237.237 0 0 0-.021.116c0 .054.014.12.044.198.291.687.609 1.35.951 1.99.343.639.641 1.153.894 1.543.253.39.51.759.773 1.104.263.347.437.569.522.667.085.097.152.17.2.219l.183.176c.117.117.288.257.514.42.227.163.477.325.752.483.275.158.594.288.96.388.364.1.719.14 1.064.12h.84c.17-.014.298-.068.386-.16l.029-.037a.498.498 0 0 0 .055-.135.748.748 0 0 0 .025-.202c-.005-.209.011-.398.047-.566a1.49 1.49 0 0 1 .125-.38.93.93 0 0 1 .28-.322.501.501 0 0 1 .059-.026c.117-.04.254-.002.412.113.158.115.307.256.445.425.139.168.305.357.5.567.195.21.365.365.51.468l.146.088c.098.058.224.112.38.16a.812.812 0 0 0 .408.037l1.868-.029c.185 0 .328-.03.43-.091.102-.061.163-.129.183-.202a.566.566 0 0 0 .003-.249.923.923 0 0 0-.051-.194z"/></defs><g><g transform="translate(-1378 -3013)"><use fill="#fff" xlink:href="#utaea"/></g></g></svg>