<svg xmlns="http://www.w3.org/2000/svg" xmlns:xlink="http://www.w3.org/1999/xlink" width="17" height="17" viewBox="0 0 17 17"><defs><path id="u4oma" d="M414 679.974v7.051c0 .446-.248.847-.647 1.047l-7.51 3.805a1.173 1.173 0 0 1-1.062-.01l-.003-.001-7.15-3.795a1.166 1.166 0 0 1-.628-1.037v-7.07c0-.436.24-.833.627-1.036.024-.015 7.128-3.786 7.154-3.797a1.175 1.175 0 0 1 1.062-.01l.003.002 7.507 3.804c.4.2.647.6.647 1.047zm-11.18-2.675l6.87 3.636 2.735-1.362-7.027-3.56a.176.176 0 0 0-.156 0zm1.997 6.673l-6.821-3.558v6.62c0 .065.036.124.093.154l.004.002 6.724 3.57zm3.777-2.49l-6.836-3.619-3.222 1.71 6.784 3.538zm4.41 5.543v-6.628l-2.929 1.459v2.2a.498.498 0 0 1-.996 0v-1.704l-3.266 1.626v6.799l7.095-3.596c.06-.03.096-.089.096-.156zm-10.162-1.568l-1.983 1.163-.008.004-.003.003-.01.005-.015.007a.253.253 0 0 1-.015.007l-.015.006a.257.257 0 0 1-.015.006l-.015.006-.016.004-.015.005c-.005 0-.011.002-.017.004l-.014.003-.019.003a.15.15 0 0 0-.012.002l-.023.002h-.008a.497.497 0 0 1-.05 0h-.014l-.017-.001-.015-.001-.016-.003-.016-.003-.015-.003-.016-.004-.015-.004-.016-.005-.014-.005-.017-.007-.013-.005-.016-.008-.013-.006a.319.319 0 0 1-.016-.01l-.012-.006a.274.274 0 0 1-.016-.01l-.012-.008-.014-.01-.012-.01a.198.198 0 0 1-.014-.012l-.011-.01a.299.299 0 0 1-.013-.012l-.011-.012-.011-.012-.011-.013-.01-.013-.01-.014-.01-.014-.01-.014-.006-.01a.052.052 0 0 0-.002-.004l-.004-.007-.57-1.034a.498.498 0 0 1 .87-.481l.325.586 1.542-.904a.498.498 0 0 1 .504.859z"/></defs><g><g transform="translate(-397 -675)"><use fill="#435358" xlink:href="#u4oma"/></g></g></svg>