<svg xmlns="http://www.w3.org/2000/svg" xmlns:xlink="http://www.w3.org/1999/xlink" width="17" height="17" viewBox="0 0 17 17"><defs><path id="sb14a" d="M414 751.5c0 2.27-.884 4.405-2.49 6.01a8.446 8.446 0 0 1-6.01 2.49 8.446 8.446 0 0 1-6.01-2.49 8.445 8.445 0 0 1-2.49-6.01c0-2.27.884-4.405 2.49-6.01a8.444 8.444 0 0 1 6.01-2.49c2.27 0 4.405.884 6.01 2.49a8.444 8.444 0 0 1 2.49 6.01zm-6.62-7.27c.266.392.508.872.721 1.436.228.605.417 1.286.563 2.02h3.304a7.551 7.551 0 0 0-1.16-1.493 7.456 7.456 0 0 0-3.428-1.962zm.447 4.45h-4.654c-.129.886-.196 1.838-.196 2.82 0 .964.065 1.9.19 2.772h4.666c.125-.872.19-1.808.19-2.772 0-.982-.067-1.934-.196-2.82zm-3.998-2.663c-.19.503-.35 1.064-.479 1.67h4.3a11.566 11.566 0 0 0-.48-1.67c-.477-1.267-1.102-2.023-1.67-2.023-.568 0-1.193.756-1.67 2.023zm-4.797 1.67h3.304c.146-.735.334-1.416.563-2.022a6.893 6.893 0 0 1 .72-1.434 7.459 7.459 0 0 0-3.426 1.961 7.552 7.552 0 0 0-1.161 1.495zm-.51 6.585h3.641a20.78 20.78 0 0 1-.18-2.772c0-.976.064-1.926.187-2.82h-3.63a7.497 7.497 0 0 0-.546 2.82c0 .965.182 1.902.527 2.772zm5.098 4.497a6.893 6.893 0 0 1-.721-1.435 12.877 12.877 0 0 1-.572-2.067h-3.322c.324.556.721 1.073 1.188 1.54a7.46 7.46 0 0 0 3.427 1.962zm3.55-1.786a11.63 11.63 0 0 0 .489-1.716h-4.318c.13.623.294 1.2.488 1.716.478 1.266 1.103 2.022 1.671 2.022.568 0 1.193-.756 1.67-2.022zm4.825-1.716h-3.322c-.147.752-.339 1.449-.572 2.067a6.884 6.884 0 0 1-.72 1.435 7.458 7.458 0 0 0 3.426-1.962 7.55 7.55 0 0 0 1.188-1.54zm.483-.995c.346-.87.528-1.807.528-2.772 0-.982-.188-1.936-.546-2.82h-3.63c.123.894.188 1.844.188 2.82 0 .958-.062 1.893-.181 2.772z"/></defs><g><g transform="translate(-397 -743)"><use fill="#435358" xlink:href="#sb14a"/></g></g></svg>