<svg xmlns="http://www.w3.org/2000/svg" xmlns:xlink="http://www.w3.org/1999/xlink" width="17" height="17" viewBox="0 0 17 17"><defs><path id="zxfma" d="M414 647.5c0 4.686-3.813 8.5-8.5 8.5-4.687 0-8.5-3.814-8.5-8.5 0-4.687 3.813-8.5 8.5-8.5 4.687 0 8.5 3.813 8.5 8.5zm-1.164 0c0-4.046-3.29-7.337-7.336-7.337-4.045 0-7.336 3.291-7.336 7.336 0 4.046 3.29 7.337 7.336 7.337 4.045 0 7.336-3.29 7.336-7.337zm-2.368.468c0 .321-.26.582-.582.582h-4.62a.582.582 0 0 1-.582-.582v-4.993a.582.582 0 1 1 1.164 0v4.411h4.038c.321 0 .582.26.582.582z"/></defs><g><g transform="translate(-397 -639)"><use fill="#435358" xlink:href="#zxfma"/></g></g></svg>