<svg xmlns="http://www.w3.org/2000/svg" xmlns:xlink="http://www.w3.org/1999/xlink" width="23" height="23" viewBox="0 0 23 23"><defs><path id="6je3a" d="M412 873.358v5.962a.68.68 0 0 1-.68.68h-21.64a.68.68 0 0 1-.68-.68v-5.962a3.81 3.81 0 0 1 3.805-3.806h.738v-4.437c0-1.185.964-2.149 2.148-2.149h4.133v-.693a1.903 1.903 0 0 1-1.223-1.776c0-.77.915-2.462 1.308-3.154a.68.68 0 0 1 1.181 0c.394.692 1.31 2.384 1.31 3.154 0 .807-.506 1.498-1.217 1.773v.696h4.132c1.185 0 2.149.964 2.149 2.15v4.436h.731a3.81 3.81 0 0 1 3.805 3.806zM399.96 860.5a.54.54 0 0 0 1.08 0c-.009-.186-.228-.728-.54-1.366-.312.64-.532 1.182-.54 1.366zm-5.058 5.76h11.203v-1.145a.79.79 0 0 0-.79-.79h-9.624a.79.79 0 0 0-.79.79zm0 3.292h11.203v-1.934h-11.203zm15.74 9.088v-2.645a2.836 2.836 0 0 1-3.649-.583 2.837 2.837 0 0 1-4.329 0 2.837 2.837 0 0 1-4.328 0 2.837 2.837 0 0 1-4.329 0 2.837 2.837 0 0 1-3.648.583v2.645zm0-5.07v-.212a2.45 2.45 0 0 0-2.447-2.447h-15.39a2.449 2.449 0 0 0-2.446 2.447v.213c0 .819.665 1.485 1.484 1.485.82 0 1.485-.666 1.485-1.486a.68.68 0 0 1 1.359 0c0 .82.666 1.486 1.485 1.486.819 0 1.485-.666 1.485-1.486a.68.68 0 1 1 1.358 0c0 .82.666 1.486 1.485 1.486.819 0 1.485-.666 1.485-1.486a.68.68 0 1 1 1.358 0c0 .82.666 1.486 1.485 1.486.82 0 1.486-.666 1.486-1.486a.68.68 0 1 1 1.358 0c0 .82.666 1.486 1.485 1.486.819 0 1.485-.666 1.485-1.486z"/></defs><g><g transform="translate(-389 -857)"><use fill="#abd807" xlink:href="#6je3a"/></g></g></svg>