<svg xmlns="http://www.w3.org/2000/svg" xmlns:xlink="http://www.w3.org/1999/xlink" width="16" height="13" viewBox="0 0 16 13"><defs><path id="13g9a" d="M737.07 4567.801c-2.179-2.739-3.62-5.128-7.357-5.636v2.082c0 .416-.46.667-.806.44l-6.67-4.361a.526.526 0 0 1 0-.88l6.67-4.361a.522.522 0 0 1 .806.44v2.259a9.081 9.081 0 0 1 4.478 2.024c2.552 2.135 2.906 4.41 3.787 7.522.157.552-.556.914-.909.471zm-.805-2.69c-1.13-3.99-3.975-6.03-7.125-6.342a.524.524 0 0 1-.47-.522v-1.756l-5.192 3.395 5.192 3.395v-1.694a.523.523 0 0 1 .555-.524 9.157 9.157 0 0 1 6.554 3.436z"/></defs><g><g transform="translate(-722 -4555)"><use fill="#0176fe" xlink:href="#13g9a"/></g></g></svg>