<svg xmlns="http://www.w3.org/2000/svg" xmlns:xlink="http://www.w3.org/1999/xlink" width="11" height="14" viewBox="0 0 11 14"><defs><path id="lg65a" d="M893 39.875v4.375c0 .966-.82 1.75-1.833 1.75h-7.334c-1.012 0-1.833-.784-1.833-1.75v-4.375c0-.967.82-1.75 1.833-1.75V35.5c0-1.93 1.645-3.5 3.667-3.5s3.667 1.57 3.667 3.5v2.625c1.012 0 1.833.783 1.833 1.75zm-4.583 1.75c0-.484-.41-.875-.917-.875-.506 0-.917.391-.917.875 0 .32.19.589.459.74v1.447c0 .242.205.438.458.438a.448.448 0 0 0 .458-.438v-1.446c.27-.152.459-.42.459-.741zm.916-6.125c0-.966-.822-1.75-1.833-1.75-1.011 0-1.833.784-1.833 1.75v2.625h3.666z"/></defs><g><g transform="translate(-882 -32)"><use fill="#858d90" xlink:href="#lg65a"/></g></g></svg>