<svg xmlns="http://www.w3.org/2000/svg" xmlns:xlink="http://www.w3.org/1999/xlink" width="16" height="12" viewBox="0 0 16 12"><defs><path id="wvpba" d="M1481.223 3014.999c0 .478-.003.853-.009 1.122-.005.27-.029.61-.07 1.021-.042.411-.104 1.516-.187 1.84-.088.365-.279.671-.572.92-.293.25-.636.395-1.028.434-1.227.125-3.081.187-5.563.187-2.482 0-4.337-.062-5.564-.187a1.853 1.853 0 0 1-1.032-.434 1.705 1.705 0 0 1-.576-.92c-.078-.324-.137-1.429-.178-1.84a13.177 13.177 0 0 1-.07-1.021c-.007-.27-.01-.644-.01-1.122 0-.48.003-.853.01-1.123.005-.27.028-.61.07-1.02.041-.412.103-1.518.186-1.842.089-.364.28-.67.572-.92.293-.249.636-.394 1.028-.434 1.227-.124 3.082-.187 5.564-.187 2.481 0 4.336.063 5.563.187.392.04.737.185 1.032.435.296.248.488.555.577.92.077.323.136 1.429.178 1.84.041.411.065.752.07 1.021.006.27.009.644.009 1.123zm-4.246 0a.424.424 0 0 0-.248-.404l-4.245-2.395a.546.546 0 0 0-.54-.015c-.182.09-.273.23-.273.42v4.788c0 .189.091.329.274.419.088.04.174.059.257.059a.51.51 0 0 0 .282-.074l4.245-2.394a.425.425 0 0 0 .248-.404z"/></defs><g><g transform="translate(-1466 -3009)"><use fill="#fff" xlink:href="#wvpba"/></g></g></svg>