<svg xmlns="http://www.w3.org/2000/svg" xmlns:xlink="http://www.w3.org/1999/xlink" width="17" height="17" viewBox="0 0 17 17"><defs><path id="f6b4a" d="M414 718.5c0 1.062-.244 2.389-.555 3.02-.366.742-1.252 1.493-2.238 1.493a2.43 2.43 0 0 1-2.35-1.823c-.79.983-2.001 1.613-3.357 1.613a4.309 4.309 0 0 1-4.304-4.303 4.309 4.309 0 0 1 4.304-4.304c1.313 0 2.49.592 3.28 1.522v-.523a.511.511 0 0 1 1.024 0v5.392c0 .774.629 1.403 1.403 1.403.597 0 1.132-.539 1.32-.922.213-.431.45-1.592.45-2.568 0-4.123-3.354-7.477-7.477-7.477s-7.477 3.354-7.477 7.477 3.354 7.477 7.477 7.477c1.24 0 2.467-.31 3.55-.894a.511.511 0 0 1 .485.9A8.512 8.512 0 0 1 405.5 727a8.444 8.444 0 0 1-6.01-2.49 8.444 8.444 0 0 1-2.49-6.01c0-2.27.884-4.405 2.49-6.01a8.445 8.445 0 0 1 6.01-2.49c2.27 0 4.405.884 6.01 2.49a8.444 8.444 0 0 1 2.49 6.01zm-5.22 0a3.285 3.285 0 0 0-3.28-3.281 3.285 3.285 0 0 0-3.281 3.28 3.285 3.285 0 0 0 3.28 3.282 3.285 3.285 0 0 0 3.282-3.281z"/></defs><g><g transform="translate(-397 -710)"><use fill="#435358" xlink:href="#f6b4a"/></g></g></svg>