<svg xmlns="http://www.w3.org/2000/svg" xmlns:xlink="http://www.w3.org/1999/xlink" width="16" height="16" viewBox="0 0 16 16"><defs><path id="44o9a" d="M657 573.51a3.52 3.52 0 0 1-1.037 2.503l-9.157 9.17a.45.45 0 0 1-.647 0l-3.689-3.695-.474 3.511 2.427-.328a.461.461 0 0 1 .123.916l-3.027.41c-.02.003-.041.003-.062.003a.458.458 0 0 1-.453-.523l.678-5.035a.46.46 0 0 1 .13-.262l9.157-9.171a3.524 3.524 0 0 1 4.994 0 3.506 3.506 0 0 1 1.037 2.5zm-14.21 6.998l1.538 1.54 8.356-8.372-1.538-1.54zm12.052-4.673l-1.504-1.506-8.355 8.371 1.503 1.507zm1.237-2.326c0-.7-.269-1.36-.763-1.851a2.603 2.603 0 0 0-1.848-.765 2.6 2.6 0 0 0-1.664.597l3.679 3.686a2.606 2.606 0 0 0 .596-1.667z"/></defs><g><g transform="translate(-641 -570)"><use fill="#a0aaaf" xlink:href="#44o9a"/></g></g></svg>