<svg xmlns="http://www.w3.org/2000/svg" xmlns:xlink="http://www.w3.org/1999/xlink" width="17" height="17" viewBox="0 0 17 17"><defs><path id="kv0xa" d="M413.563 584.652l-.769.768a5.386 5.386 0 0 1-7.62 0l-6.598-6.6a5.395 5.395 0 0 1 0-7.621l.77-.764c.581-.58 1.53-.58 2.112.002l2.113 2.106c.588.589.58 1.534 0 2.114l-.96.96a1.131 1.131 0 0 0 0 1.602l4.163 4.167c.442.44 1.16.44 1.601 0l.96-.961a1.496 1.496 0 0 1 2.114 0l2.114 2.113c.582.583.582 1.53 0 2.114zm-13.865-13.163l2.816 2.816.353-.353a.498.498 0 0 0 0-.704l-2.113-2.106a.5.5 0 0 0-.705 0zm12.09 13.501l-2.808-2.807a2.126 2.126 0 0 1-2.91-.093l-4.164-4.167c-.8-.8-.83-2.074-.093-2.91l-2.808-2.808a4.38 4.38 0 0 0 .275 5.91l6.598 6.6a4.371 4.371 0 0 0 5.91.275zm1.07-1.747l-2.113-2.114a.499.499 0 0 0-.705 0l-.352.352 2.818 2.818.352-.352a.499.499 0 0 0 0-.704z"/></defs><g><g transform="translate(-397 -570)"><use fill="#435358" xlink:href="#kv0xa"/></g></g></svg>