<svg xmlns="http://www.w3.org/2000/svg" xmlns:xlink="http://www.w3.org/1999/xlink" width="23" height="19" viewBox="0 0 23 19"><defs><path id="vsqha" d="M404.452 901.735c-.042.371-.372.645-.749.645H392.87a.73.73 0 0 1-.73-.81c.042-.371.372-.645.75-.645h10.832a.73.73 0 0 1 .73.81zm0 3.15c-.042.372-.372.645-.749.645H392.87a.73.73 0 0 1-.73-.81c.042-.37.372-.644.75-.644h10.832a.73.73 0 0 1 .73.81zm-.73 3.795H392.87a.73.73 0 0 1-.73-.81c.042-.37.372-.644.75-.644h10.813c.377 0 .707.274.749.645a.73.73 0 0 1-.73.81zm8.278-6.43v11.891c0 1.026-.84 1.858-1.876 1.858H399a1.867 1.867 0 0 1-1.876-1.858v-.387l-4.112 1.983c-.616.296-1.284-.337-.99-.962l1.022-2.169h-2.167A1.867 1.867 0 0 1 389 910.75v-11.892c0-1.026.84-1.857 1.876-1.857h14.844c1.036 0 1.876.831 1.876 1.857v1.536h2.528c1.036 0 1.876.831 1.876 1.857zm-13.007 8.976c.1-.048.21-.074.322-.074h6.405c.225 0 .408-.18.408-.403v-11.892a.405.405 0 0 0-.408-.403h-14.844a.405.405 0 0 0-.408.403v11.892c0 .222.182.403.408.403h3.311c.536 0 .892.553.666 1.036l-.632 1.343zm11.539 2.915v-11.89a.406.406 0 0 0-.408-.405h-2.528v8.903c0 1.026-.84 1.857-1.876 1.857h-6.222l-.907.438v1.097c0 .223.183.404.408.404h11.125c.225 0 .408-.18.408-.404z"/></defs><g><g transform="translate(-389 -897)"><use fill="#abd807" xlink:href="#vsqha"/></g></g></svg>