<svg xmlns="http://www.w3.org/2000/svg" xmlns:xlink="http://www.w3.org/1999/xlink" width="59" height="59" viewBox="0 0 59 59"><defs><path id="4w3sa" d="M1342.95 982.718a.323.323 0 0 0-.086.276l2.873 17.65a2.866 2.866 0 0 1-1.188 2.825 2.869 2.869 0 0 1-1.655.529 2.88 2.88 0 0 1-1.397-.365l-14.845-8.222a.313.313 0 0 0-.304 0l-14.845 8.222a2.86 2.86 0 0 1-3.053-.164 2.866 2.866 0 0 1-1.187-2.825l2.873-17.65a.323.323 0 0 0-.087-.276l-12.23-12.561a2.877 2.877 0 0 1-.668-2.933 2.872 2.872 0 0 1 2.296-1.934l16.764-2.566a.318.318 0 0 0 .24-.18l7.44-15.884a2.857 2.857 0 0 1 2.609-1.66c1.13 0 2.13.636 2.61 1.66l7.44 15.884a.317.317 0 0 0 .238.18l16.764 2.566a2.872 2.872 0 0 1 2.297 1.934 2.876 2.876 0 0 1-.668 2.933zm-1.838-1.79l12.23-12.561a.307.307 0 0 0 .075-.328.302.302 0 0 0-.253-.213l-16.764-2.567a2.878 2.878 0 0 1-2.174-1.627l-7.44-15.884a.299.299 0 0 0-.286-.183.299.299 0 0 0-.286.183l-7.44 15.884a2.877 2.877 0 0 1-2.174 1.627l-16.764 2.567a.302.302 0 0 0-.253.214.306.306 0 0 0 .074.327l12.23 12.561c.636.653.927 1.58.781 2.478l-2.873 17.65a.304.304 0 0 0 .132.316.298.298 0 0 0 .333.018l14.845-8.223a2.875 2.875 0 0 1 1.395-.363c.48 0 .958.12 1.395.363l14.845 8.223c.142.078.26.033.333-.018a.305.305 0 0 0 .132-.316l-2.873-17.65c-.147-.899.145-1.825.78-2.478zm7.435-10.92a1.283 1.283 0 0 1-1.463 1.074l-.064-.01a1.282 1.282 0 1 1 .388-2.536l.065.01c.7.107 1.18.762 1.074 1.462zm-4.537-.695a1.283 1.283 0 0 1-1.462 1.074l-8.536-1.307a1.282 1.282 0 1 1 .388-2.536l8.537 1.307c.7.107 1.18.762 1.073 1.462z"/></defs><g><g transform="translate(-1297 -945)"><use fill="#fff" xlink:href="#4w3sa"/></g></g></svg>