<svg xmlns="http://www.w3.org/2000/svg" xmlns:xlink="http://www.w3.org/1999/xlink" width="59" height="59" viewBox="0 0 59 59"><defs><path id="wz1ia" d="M717.907 992.386a1.138 1.138 0 0 1-.089.44 1.14 1.14 0 0 1-.839.69 1.13 1.13 0 0 1-.864-.173 1.087 1.087 0 0 1-.318-.318 1.07 1.07 0 0 1-.106-.199 1.138 1.138 0 0 1 .249-1.255 1.163 1.163 0 0 1 .59-.315 1.136 1.136 0 0 1 .864.172 1.094 1.094 0 0 1 .318.318 1.16 1.16 0 0 1 .195.64zm30.16 6.404a1.11 1.11 0 0 1-.092.038l-17.745 6.354a9.185 9.185 0 0 1-3.818.818 10.347 10.347 0 0 1-3.758-.72c-3.6-1.62-5.6-2.773-6.923-3.536-1.72-.992-2.336-1.347-4.21-1.51v.331c0 .637-.515 1.153-1.152 1.153h-3.213v.995c0 .636-.516 1.152-1.152 1.152h-6.852a1.153 1.153 0 0 1-1.152-1.152v-14.53c0-.637.516-1.153 1.152-1.153h10.666c1.524-2.252 4.187-4.317 7.198-4.317 4.308 0 6.608 2.43 7.343 3.38l8.824 2.995.031.01c1.637.608 2.795 1.804 3.259 3.21l8.028-2.22c2.944-1.006 5.431-.088 6.492 2.394l.014.034c1.284 3.294-1.243 5.493-2.94 6.274zm-43.216-9.455h-4.546v12.225h4.546zm4.366 0h-2.06v10.077h2.06zm39.65 4.036c-.73-1.683-2.371-1.529-3.62-1.102l-8.653 2.397a4.519 4.519 0 0 1-2.232 3.01 4.523 4.523 0 0 1-3.46.403l-.032-.01-10.342-3.278a1.152 1.152 0 1 1 .696-2.197l10.324 3.272a2.233 2.233 0 0 0 1.692-.203c.524-.292.903-.77 1.067-1.347.355-1.25-.418-2.502-1.88-3.051l-9.159-3.11a1.153 1.153 0 0 1-.611-.487c-.065-.103-1.725-2.65-5.641-2.65-2.284 0-4.402 1.833-5.494 3.623v9.283c2.566.212 3.474.736 5.36 1.823 1.356.783 3.213 1.853 6.69 3.418.921.358 3.27 1.038 5.74-.098a1.089 1.089 0 0 1 .098-.04l17.737-6.351c.51-.244 2.475-1.33 1.72-3.305zm-9.47-30.991a1.133 1.133 0 0 1-.194.64 1.109 1.109 0 0 1-.318.317 1.163 1.163 0 0 1-.64.195 1.129 1.129 0 0 1-.44-.089 1.124 1.124 0 0 1-.374-.249 1.108 1.108 0 0 1-.25-.374 1.134 1.134 0 0 1 .106-1.08 1.109 1.109 0 0 1 .32-.318 1.123 1.123 0 0 1 .414-.172 1.142 1.142 0 0 1 .864.172 1.108 1.108 0 0 1 .318.318 1.116 1.116 0 0 1 .195.64zM757 952.053v14.53c0 .637-.516 1.153-1.152 1.153H745.18c-1.523 2.251-4.186 4.317-7.197 4.317a11 11 0 0 1-.948-.04l-11.716 11.716c-.457.457-1.278.351-1.63 0l-21.927-21.93a1.143 1.143 0 0 1 0-1.63l12.832-12.834c.45-.45 1.18-.45 1.63 0l3.909 3.909 4.637-1.66c3.28-1.488 6.352-.58 7.524-.12a.967.967 0 0 1 .051.022c3.6 1.62 5.6 2.772 6.923 3.535 1.72.992 2.336 1.348 4.21 1.511v-.332c0-.636.515-1.152 1.152-1.152h3.213v-.995c0-.637.516-1.153 1.152-1.153h6.852c.636 0 1.152.516 1.152 1.153zm-44.216.353a4.97 4.97 0 0 0 2.626.742c.943 0 1.846-.259 2.627-.742l-2.627-2.626zm-5.209 8.578c0-.944-.258-1.846-.74-2.627l-2.627 2.627 2.626 2.626c.483-.78.741-1.683.741-2.626zm19.556 17.674a5.017 5.017 0 0 0-5.251 0l2.626 2.626zm4.292-4.292a7.36 7.36 0 0 1-1.22-5.842l-3.891-1.32a6.544 6.544 0 0 1-1.71 2.973 6.548 6.548 0 0 1-4.644 1.921 6.548 6.548 0 0 1-4.645-1.92 6.578 6.578 0 0 1 0-9.292 6.565 6.565 0 0 1 3.447-1.814 4.516 4.516 0 0 1 1.878-1.983 4.545 4.545 0 0 1 1.551-.53l-2.492-2.492a7.253 7.253 0 0 1-4.287 1.386 7.254 7.254 0 0 1-4.286-1.386l-2.63 2.63a7.255 7.255 0 0 1 1.386 4.287c0 1.562-.486 3.049-1.386 4.286l11.726 11.728a7.322 7.322 0 0 1 8.572 0zm-13.09-12.777a4.27 4.27 0 0 0-1.39 6.959 4.269 4.269 0 0 0 6.03 0c.58-.58.974-1.303 1.148-2.088l-2.305-.782a1.441 1.441 0 0 1-.03-.011c-1.966-.73-3.24-2.308-3.453-4.078zm16.047 9.82a8.95 8.95 0 0 1-2.032-1.101c.04.845.291 1.672.736 2.397zm9.098-14.567c-2.566-.212-3.475-.736-5.36-1.824-1.357-.782-3.213-1.853-6.691-3.418-.92-.358-3.269-1.038-5.739.098a.975.975 0 0 1-.046.02c-.003.001-.01.003-.012.005a.85.85 0 0 1-.04.015l-3.654 1.308 4.251 4.252.002.002.072.072 8.211 2.602a1.153 1.153 0 0 1-.696 2.197l-10.324-3.272a2.23 2.23 0 0 0-1.692.203 2.23 2.23 0 0 0-1.067 1.346v.002c-.355 1.25.418 2.502 1.88 3.05l9.162 3.11c.281.096.501.289.635.529.015.021.115.152.139.187.441.56 1.78 1.975 4.268 2.336h.005c.374.055.775.085 1.202.085 2.284 0 4.402-1.832 5.494-3.623zm4.366-1.49h-2.06v10.079h2.06zm6.851-2.147h-4.547v12.226h4.547z"/></defs><g><g transform="translate(-698 -947)"><use fill="#fff" xlink:href="#wz1ia"/></g></g></svg>