<svg 
 xmlns="http://www.w3.org/2000/svg"
 xmlns:xlink="http://www.w3.org/1999/xlink"
 width="15px" height="3px">
<path fill-rule="evenodd"
 d="M13.328,3.000 C12.405,3.000 11.656,2.328 11.656,1.500 C11.656,0.672 12.405,-0.000 13.328,-0.000 C14.251,-0.000 15.000,0.672 15.000,1.500 C15.000,2.328 14.251,3.000 13.328,3.000 ZM7.500,3.000 C6.585,3.000 5.844,2.328 5.844,1.500 C5.844,0.672 6.585,-0.000 7.500,-0.000 C8.415,-0.000 9.156,0.672 9.156,1.500 C9.156,2.328 8.415,3.000 7.500,3.000 ZM1.672,3.000 C0.748,3.000 -0.000,2.328 -0.000,1.500 C-0.000,0.672 0.748,-0.000 1.672,-0.000 C2.595,-0.000 3.344,0.672 3.344,1.500 C3.344,2.328 2.595,3.000 1.672,3.000 Z"/>
</svg>