<svg 
 xmlns="http://www.w3.org/2000/svg"
 xmlns:xlink="http://www.w3.org/1999/xlink"
 width="22px" height="23px">
<path fill-rule="evenodd"
 d="M21.197,22.035 L16.874,22.035 C16.431,22.035 16.009,21.640 16.009,21.193 L16.009,16.821 C16.009,16.373 16.372,16.010 16.820,16.010 L21.188,16.010 C21.636,16.010 21.998,16.374 21.998,16.821 L21.998,21.193 C21.998,21.640 21.640,22.035 21.197,22.035 ZM21.197,14.035 L16.874,14.035 C16.431,14.035 16.009,13.640 16.009,13.193 L16.009,8.821 C16.009,8.373 16.372,8.010 16.820,8.010 L21.188,8.010 C21.636,8.010 21.998,8.374 21.998,8.821 L21.998,13.193 C21.998,13.640 21.640,14.035 21.197,14.035 ZM21.197,6.035 L16.874,6.035 C16.431,6.035 16.009,5.640 16.009,5.193 L16.009,0.821 C16.009,0.373 16.372,0.010 16.820,0.010 L21.188,0.010 C21.636,0.010 21.998,0.374 21.998,0.821 L21.998,5.193 C21.998,5.640 21.640,6.035 21.197,6.035 ZM13.193,22.004 L8.824,22.004 C8.378,22.004 8.014,21.640 8.014,21.193 L8.014,16.821 C8.014,16.373 8.378,16.010 8.824,16.010 L13.193,16.010 C13.641,16.010 14.004,16.373 14.004,16.821 L14.004,21.193 C14.004,21.640 13.641,22.004 13.193,22.004 ZM13.193,14.004 L8.824,14.004 C8.378,14.004 8.014,13.640 8.014,13.193 L8.014,8.821 C8.014,8.373 8.378,8.010 8.824,8.010 L13.193,8.010 C13.641,8.010 14.004,8.373 14.004,8.821 L14.004,13.193 C14.004,13.640 13.641,14.004 13.193,14.004 ZM13.193,6.003 L8.824,6.003 C8.378,6.003 8.014,5.640 8.014,5.193 L8.014,0.821 C8.014,0.373 8.378,0.010 8.824,0.010 L13.193,0.010 C13.641,0.010 14.004,0.373 14.004,0.821 L14.004,5.193 C14.004,5.640 13.641,6.003 13.193,6.003 ZM5.127,22.035 L0.804,22.035 C0.360,22.035 0.001,21.669 0.001,21.220 L0.001,16.826 C0.001,16.375 0.360,16.010 0.804,16.010 L5.127,16.010 C5.569,16.010 5.928,16.375 5.928,16.826 L5.928,21.220 C5.928,21.669 5.569,22.035 5.127,22.035 ZM5.127,14.035 L0.804,14.035 C0.360,14.035 0.001,13.669 0.001,13.220 L0.001,8.826 C0.001,8.375 0.360,8.010 0.804,8.010 L5.127,8.010 C5.569,8.010 5.928,8.375 5.928,8.826 L5.928,13.220 C5.928,13.669 5.569,14.035 5.127,14.035 ZM5.127,6.035 L0.804,6.035 C0.360,6.035 0.001,5.669 0.001,5.220 L0.001,0.826 C0.001,0.375 0.360,0.010 0.804,0.010 L5.127,0.010 C5.569,0.010 5.928,0.375 5.928,0.826 L5.928,5.220 C5.928,5.669 5.569,6.035 5.127,6.035 Z"/>
</svg>