<svg 
 xmlns="http://www.w3.org/2000/svg"
 xmlns:xlink="http://www.w3.org/1999/xlink"
 width="21px" height="21px">
<path fill-rule="evenodd" 
 d="M19.000,15.000 L7.000,15.000 C5.676,15.000 4.987,14.334 4.987,13.510 C4.987,12.685 5.676,12.000 7.000,12.000 L19.000,12.000 C20.637,12.000 21.000,12.685 21.000,13.510 C21.000,14.334 20.762,15.000 19.000,15.000 ZM19.000,9.000 L7.000,9.000 C5.676,9.000 4.987,8.334 4.987,7.510 C4.987,6.685 5.676,5.999 7.000,5.999 L19.000,5.999 C20.637,5.999 21.000,6.685 21.000,7.510 C21.000,8.334 20.762,9.000 19.000,9.000 ZM19.000,2.999 L7.000,2.999 C5.676,2.999 4.987,2.333 4.987,1.510 C4.987,0.686 5.676,-0.001 7.000,-0.001 L19.000,-0.001 C20.637,-0.001 21.000,0.686 21.000,1.510 C21.000,2.333 20.762,2.999 19.000,2.999 ZM1.500,21.014 C0.671,21.014 -0.001,20.339 -0.001,19.506 C-0.001,18.673 0.671,17.997 1.500,17.997 C2.329,17.997 3.002,18.673 3.002,19.506 C3.002,20.339 2.329,21.014 1.500,21.014 ZM1.500,15.015 C0.671,15.015 -0.001,14.339 -0.001,13.506 C-0.001,12.673 0.671,11.997 1.500,11.997 C2.329,11.997 3.002,12.673 3.002,13.506 C3.002,14.339 2.329,15.015 1.500,15.015 ZM1.500,9.015 C0.671,9.015 -0.001,8.339 -0.001,7.506 C-0.001,6.673 0.671,5.997 1.500,5.997 C2.329,5.997 3.002,6.673 3.002,7.506 C3.002,8.339 2.329,9.015 1.500,9.015 ZM1.500,3.015 C0.671,3.015 -0.001,2.339 -0.001,1.506 C-0.001,0.672 0.671,-0.003 1.500,-0.003 C2.329,-0.003 3.002,0.672 3.002,1.506 C3.002,2.339 2.329,3.015 1.500,3.015 ZM7.000,18.000 L19.000,18.000 C20.637,18.000 21.000,18.686 21.000,19.510 C21.000,20.334 20.762,21.000 19.000,21.000 L7.000,21.000 C5.676,21.000 4.987,20.334 4.987,19.510 C4.987,18.686 5.676,18.000 7.000,18.000 Z"/>
</svg>