<?xml version="1.0" encoding="utf-8"?>
<!-- Generator: Adobe Illustrator 21.1.0, SVG Export Plug-In . SVG Version: 6.00 Build 0)  -->
<svg version="1.1" id="Слой_1" xmlns="http://www.w3.org/2000/svg" xmlns:xlink="http://www.w3.org/1999/xlink" x="0px" y="0px"
	 viewBox="0 0 326.318 99.391" style="enable-background:new 0 0 326.318 99.391;" xml:space="preserve">
<style type="text/css">
	.st0{fill:#FFFFFF;}
	.st1{fill:#ABD807;}
</style>
<path class="st0" d="M56.791,80.684h-7.208l8.408-36.399c0.191-1.338,0.191-2.006,0.191-2.58c-0.191-1.146-0.956-3.247-4.013-3.247
	c-0.86,0-1.72,0.19-2.484,0.669c-1.815,1.051-2.388,3.152-2.962,5.159l-6.546,28.341c-1.09,4.717-5.29,8.059-10.132,8.059h-7.302
	l8.503-36.876c0.096-0.765,0.765-3.344-1.147-4.873c-0.955-0.764-2.102-0.764-2.579-0.764c-0.478,0-1.433,0-2.579,0.669
	c-2.006,1.146-2.579,2.865-3.153,4.968l-6.644,28.814c-1.088,4.719-5.29,8.062-10.133,8.062H0l9.902-43.15
	c1.082-4.715,5.278-8.058,10.116-8.058h7.115l-1.338,5.923c0.287-0.476,0.86-1.336,1.815-2.292
	c1.433-1.338,5.923-4.777,12.038-4.777c5.063,0,7.834,2.58,8.789,4.395c0.383,0.669,0.574,1.241,0.765,2.674
	c0.287-0.381,1.147-1.528,2.197-2.482c3.439-2.963,8.312-4.682,12.802-4.682c5.541,0,10.509,2.484,10.509,8.79
	c0,0.954-0.191,2.292-0.573,4.393l-7.214,31.209C65.832,77.344,61.632,80.684,56.791,80.684z"/>
<path class="st0" d="M93.332,58.712c-0.478,2.197-1.624,7.069-1.624,9.362c0,0.287-0.096,0.86,0.286,1.529
	c0.765,1.433,2.675,1.91,4.108,1.91c4.682,0,5.159-3.821,5.923-7.355h15.477c-1.146,5.062-2.579,10.126-6.878,13.566
	c-4.013,3.151-10.222,4.298-15.191,4.298c-0.86,0-12.229,0.095-16.623-6.401c-0.956-1.433-1.911-3.536-1.911-7.355
	c0.096-4.873,1.338-10.032,3.726-19.872c2.102-8.693,3.44-12.229,6.879-15.381c2.675-2.485,7.452-4.777,15.573-4.777
	c1.146,0,3.439,0,6.4,0.477c2.579,0.477,11.656,2.198,11.656,11.942c0,2.77-0.86,6.498-1.433,9.171
	c-0.573,2.962-1.242,5.923-1.911,8.886H93.332z M105.273,49.349c0.669-3.154,1.338-5.829,1.338-6.975
	c0-3.726-3.248-3.916-4.395-3.916c-4.777,0-5.35,3.821-6.783,10.891H105.273z"/>
<path class="st0" d="M176.555,61.025l9.409-24.899c1.512-4.001,5.343-6.649,9.621-6.649h9.42l-20.731,47.387
	c-1.72,3.726-3.535,7.547-5.446,11.178c-1.242,2.197-4.204,8.121-11.465,10.127c-4.203,1.241-9.744,1.338-19.203,1.146l2.102-11.273
	c1.911,0,3.917,0.095,5.827,0c2.197-0.192,3.344-0.669,4.013-1.433c1.242-1.529,1.242-3.631,1.146-5.35l1.269-42.991
	c0.145-4.896,4.155-8.79,9.054-8.79h6.396L176.555,61.025z"/>
<g>
	<path class="st1" d="M235.345,12.613l-3.065,4.456h3.374l1.082-4.585c0.283-1.184,0.618-2.344,0.979-3.503
		c-0.49,0.773-0.953,1.546-1.468,2.293C235.963,11.737,235.654,12.175,235.345,12.613z"/>
	<path class="st1" d="M223.287,0c-6.553,0-12.254,4.489-13.791,10.859l-4.492,18.618h28.801c6.61,0,12.344-4.565,13.826-11.006
		L251.88,0H223.287z M226.897,20.727l-0.747,3.271h-11.488c0.361-1.932,0.773-4.121,2.035-5.667
		c1.236-1.494,3.477-2.782,5.074-3.812c1.056-0.695,1.726-1.184,2.035-1.622c0.438-0.618,0.824-2.396,0.824-3.143
		c0-0.463-0.077-1.236-1.236-1.236c-0.335,0-0.979,0.052-1.339,0.85c-0.206,0.49-0.541,1.7-0.85,3.117l-4.096-0.026
		c0.67-2.55,0.953-4.095,1.674-5.1c1.108-1.519,3.22-1.88,4.946-1.88c0.335,0,2.215,0.026,3.529,0.773
		c0.67,0.386,1.571,1.159,1.571,2.962c0,0.541-0.077,1.031-0.309,2.113c-0.052,0.257-0.438,2.344-1.391,3.58
		c-0.387,0.49-0.927,0.876-1.443,1.237c-0.464,0.309-0.927,0.618-1.391,0.902c-0.618,0.412-1.262,0.799-1.88,1.211
		c-1.005,0.644-1.623,1.159-1.932,1.545c-0.309,0.361-0.361,0.515-0.515,0.927H226.897z M241.295,17.173l-0.67,2.91h-1.7
		l-0.902,3.915h-3.992l0.927-3.915h-6.749l0.695-3.014l7.985-11.256h5.332l-2.628,11.359H241.295z"/>
</g>
<path class="st0" d="M159.911,21.436l2.149-8.771h-10.273c-6.952,0-12.984,4.8-14.545,11.574l-1.207,5.238h-0.003h-1.309
	c-2.866,0-5.351,1.984-5.985,4.779l-1.018,4.487h6.114l-9.649,41.941h7.008c4.845,0,9.048-3.346,10.134-8.067l7.793-33.874h1.836
	c2.844,0,5.315-1.954,5.971-4.721l1.078-4.546h-6.685l0.971-4.214c0.516-2.24,2.511-3.827,4.81-3.827H159.911z"/>
</svg>
