<svg 
 xmlns="http://www.w3.org/2000/svg"
 xmlns:xlink="http://www.w3.org/1999/xlink"
 width="16px" height="16px">
<path fill-rule="evenodd"
 d="M15.750,14.573 L11.807,10.612 C12.821,9.448 13.376,7.984 13.376,6.459 C13.376,2.897 10.376,-0.001 6.687,-0.001 C2.999,-0.001 -0.002,2.897 -0.002,6.459 C-0.002,10.021 2.999,12.919 6.687,12.919 C8.072,12.919 9.392,12.516 10.520,11.750 L14.493,15.741 C14.659,15.907 14.882,15.999 15.121,15.999 C15.348,15.999 15.563,15.916 15.726,15.764 C16.073,15.442 16.084,14.908 15.750,14.573 ZM6.687,1.685 C9.414,1.685 11.631,3.826 11.631,6.459 C11.631,9.092 9.414,11.234 6.687,11.234 C3.961,11.234 1.743,9.092 1.743,6.459 C1.743,3.826 3.961,1.685 6.687,1.685 Z"/>
</svg>